<svg version="1.2" xmlns="http://www.w3.org/2000/svg" viewBox="0 0 1248 232" width="1248" height="232">
	<title>New Project</title>
	<style>
		.s0 { fill: #000000 } 
	</style>
	<path id="FLEMONADE" class="s0" aria-label="FLEMONADE"  d="m118.7 14.5c0-2.7-1.6-4.3-4.3-4.3h-97.8c-3 0-4.3 1.6-4.3 4.3v204.2c0 2.7 1.3 4.3 4.3 4.3h27.6c2.7 0 4.3-1.6 4.3-4.3v-84.8h50c2.6 0 4.2-1.3 4.2-4.3v-26.6c0-2.6-1.6-4.2-4.2-4.2h-50v-53.5h65.9c2.7 0 4.3-1.6 4.3-4.2zm60.1 173.4h63.3c2.9 0 4.3 1.6 4.3 4.2v26.6c0 3-1.4 4.3-4.3 4.3h-95.2c-2.7 0-4.3-1.3-4.3-4.3v-204.2c0-2.7 1.6-4.3 4.3-4.3h27.7c2.9 0 4.2 1.6 4.2 4.3zm195-173.5c0-2.6-1.1-4.2-4.3-4.2h-97.8c-2.4 0-4 1.6-4 4.2v204.3c0 2.7 1.6 4.3 4 4.3h97.8c3.2 0 4.3-1.6 4.3-4.3v-26.6c0-2.9-1.1-4.2-4.3-4.2h-66.5v-53.8h50.8c2.7 0 4.3-1.6 4.3-4.5v-26.3c0-3-1.6-4.6-4.3-4.6h-50.8v-53.2h66.5c3.2 0 4.3-1.8 4.3-4.5zm135.1-4.2c-3.2 0-5 1.6-5.8 4.8l-29.6 132.4-29.5-132.4c-0.8-3.2-2.6-4.8-5.8-4.8h-35.1c-3.5 0-5.4 1.8-5.4 5.3v202.1c0 3.5 1.9 5.4 5.4 5.4h24.4c3.5 0 5.3-1.9 5.3-5.4v-119.7h1.9l26.3 120.3c0.8 3.2 2.7 4.8 5.9 4.8h13c3.2 0 5.1-1.6 5.9-4.8l26.3-120.3h1.9v119.7c0 3.5 1.8 5.4 5.3 5.4h24.7c3.5 0 5.4-1.9 5.4-5.4v-202.1c0-3.5-1.9-5.3-5.4-5.3zm67.1 174.5c0 25 13.3 38.3 38.3 38.3h29.8c25 0 38.3-13.3 38.3-38.3v-136.2c0-25-13.3-38.3-38.3-38.3h-29.8c-25 0-38.3 13.3-38.3 38.3zm46 4c-6.9 0-10.7-3.5-10.7-10.7v-122.9c0-6.9 3.8-10.6 10.7-10.6h15.4c6.9 0 10.7 3.7 10.7 10.6v122.9c0 7.2-3.8 10.7-10.7 10.7zm168.7-178.5c-3 0-4.3 1.6-4.3 4.2v112.3h-1.6l-40.4-113.1c-0.8-2.4-2.4-3.4-4.8-3.4h-26.3c-2.7 0-4.3 1.6-4.3 4.2v204.3c0 2.7 1.6 4.3 4.3 4.3h27.6c2.9 0 4.3-1.6 4.3-4.3v-112.8h1.3l40.7 113.6c0.8 2.4 2.4 3.5 4.8 3.5h26.3c2.7 0 4.3-1.6 4.3-4.3v-204.3c0-2.6-1.6-4.2-4.3-4.2zm186.8 212.8c3.1 0 4.2-1.6 3.7-4.5l-44.2-204.6c-0.5-2.7-2.1-3.7-4.5-3.7h-37c-2.4 0-4 1-4.5 3.7l-44.2 204.6c-0.8 2.9 0.6 4.5 3.5 4.5h28.5c2.4 0 3.7-1.4 4.2-3.7l7.2-38.9h47.4l7.4 38.9c0.5 2.3 1.9 3.7 4.3 3.7zm-46.6-73.4h-34l17-92.9zm68.9 69.2c0 2.9 1.3 4.2 4.2 4.2h63.9c25 0 38.3-13.3 38.3-38.3v-135.9c0-25-13.3-38.6-38.3-38.6h-63.9c-2.9 0-4.2 1.6-4.2 4.3zm36.2-30.9v-142.5h24.4c6.9 0 10.7 3.7 10.7 10.9v121c0 7.2-3.8 10.6-10.7 10.6zm203-173.4c0-2.7-1.1-4.2-4.3-4.2h-97.9c-2.4 0-4 1.5-4 4.2v204.3c0 2.7 1.6 4.3 4 4.3h97.9c3.2 0 4.3-1.6 4.3-4.3v-26.6c0-2.9-1.1-4.3-4.3-4.3h-66.5v-53.7h50.8c2.7 0 4.3-1.6 4.3-4.5v-26.3c0-3-1.6-4.6-4.3-4.6h-50.8v-53.2h66.5c3.2 0 4.3-1.8 4.3-4.5z"/>
</svg>